<?xml version="1.0" encoding="utf-8"?>
<!-- Generator: Adobe Illustrator 16.0.0, SVG Export Plug-In . SVG Version: 6.00 Build 0)  -->
<!DOCTYPE svg PUBLIC "-//W3C//DTD SVG 1.1//EN" "http://www.w3.org/Graphics/SVG/1.1/DTD/svg11.dtd">
<svg version="1.1" id="Layer_1" xmlns="http://www.w3.org/2000/svg" xmlns:xlink="http://www.w3.org/1999/xlink" x="0px" y="0px"
	 width="1525px" height="185px" viewBox="0 0 1525 185" enable-background="new 0 0 1525 185" xml:space="preserve">
<g>
	<defs>
		<rect id="SVGID_1_" x="47.999" y="51.379" width="116.424" height="130.871"/>
	</defs>
	<clipPath id="SVGID_2_">
		<use xlink:href="#SVGID_1_"  overflow="visible"/>
	</clipPath>
	<path clip-path="url(#SVGID_2_)" fill="#1E3046" d="M135.516,137.292l20.876,2.409c-3.211,10.432-10.437,20.068-20.876,28.9
		c-10.437,9.638-23.283,13.648-38.537,13.648c-8.835,0-17.666-1.608-24.893-6.42c-8.027-4.014-13.65-10.438-17.665-18.468
		c-4.012-8.031-6.422-17.661-6.422-28.104c0-13.651,3.21-26.496,9.633-39.343c6.427-12.843,14.454-22.476,24.893-28.901
		c9.634-6.424,20.877-9.635,32.117-9.635c15.256,0,26.497,4.816,36.132,14.447c8.831,8.836,12.846,21.679,12.846,37.74
		c0,6.426-0.802,12.041-1.606,18.466H69.679c0,2.409,0,4.82,0,7.227c0,11.236,2.407,20.072,8.027,26.495
		c5.623,6.426,12.045,9.638,19.273,9.638c8.026,0,14.45-2.408,21.676-7.226C125.881,153.346,131.502,146.116,135.516,137.292z
		 M73.692,105.969h69.854c0-2.402,0-4.007,0-4.808c0-10.441-2.407-18.472-8.03-24.892c-4.815-5.62-12.042-8.03-20.072-8.03
		c-9.634,0-17.665,3.212-24.889,9.637C82.525,83.492,76.905,93.125,73.692,105.969z"/>
</g>
<g>
	<defs>
		<rect id="SVGID_3_" x="174.056" y="4.007" width="154.96" height="178.243"/>
	</defs>
	<clipPath id="SVGID_4_">
		<use xlink:href="#SVGID_3_"  overflow="visible"/>
	</clipPath>
	<path clip-path="url(#SVGID_4_)" fill="#1E3046" d="M296.902,118.816l23.283,2.422c-7.226,20.069-17.665,35.319-32.115,45.762
		c-13.648,10.438-28.906,15.25-45.766,15.25c-20.875,0-37.737-6.42-49.781-19.267c-12.042-12.047-18.467-30.509-18.467-54.6
		c0-31.311,8.833-57.004,28.101-77.078c16.059-18.469,36.936-27.299,61.827-27.299c18.466,0,32.919,4.816,44.16,14.45
		c11.239,10.438,17.664,23.285,20.074,40.147l-21.68,1.608c-2.409-12.047-7.228-21.683-14.454-28.104
		c-7.223-5.62-16.056-8.832-27.296-8.832c-20.876,0-38.541,9.635-51.387,28.104c-11.244,16.06-16.862,35.332-16.862,57.809
		c0,17.664,4.016,30.513,12.845,40.143c8.831,9.632,20.074,13.652,34.527,13.652c11.238,0,22.479-3.214,32.116-11.243
		C285.66,143.714,292.888,133.271,296.902,118.816z"/>
</g>
<g>
	<defs>
		<rect id="SVGID_5_" x="0.629" y="4.007" width="1523.923" height="178.243"/>
	</defs>
	<clipPath id="SVGID_6_">
		<use xlink:href="#SVGID_5_"  overflow="visible"/>
	</clipPath>
	<polygon clip-path="url(#SVGID_6_)" fill="#1E3046" points="322.594,179.848 358.723,7.22 379.601,7.22 343.472,179.848 	"/>
	<path clip-path="url(#SVGID_6_)" fill="#1E3046" d="M367.559,179.848l25.693-125.262h21.678l-26.495,125.262H367.559z
		 M398.069,31.306l4.817-24.086h21.68l-4.819,24.086H398.069z"/>
	<path clip-path="url(#SVGID_6_)" fill="#1E3046" d="M411.721,179.848l26.495-125.262h19.27l-4.017,21.683
		c8.032-8.03,16.059-14.456,23.285-18.469c7.226-4.014,15.257-6.421,22.48-6.421c10.44,0,18.467,3.207,24.087,8.833
		c5.624,5.615,8.835,12.843,8.835,22.478c0,4.816-1.608,12.043-3.211,21.682l-16.86,75.477h-21.68l17.662-79.493
		c1.607-8.027,2.412-13.644,2.412-16.862c0-4.014-1.607-8.027-4.018-10.438c-3.209-2.405-7.226-4.014-12.846-4.014
		c-11.239,0-20.877,4.014-29.706,12.045c-8.831,8.025-15.255,21.676-19.268,40.152l-11.243,58.609H411.721z"/>
	<path clip-path="url(#SVGID_6_)" fill="#1E3046" d="M535.369,179.848l25.692-125.262h21.678L556.24,179.848H535.369z
		 M565.878,31.306l4.817-24.086h21.679l-4.817,24.086H565.878z"/>
</g>
<g>
	<defs>
		<rect id="SVGID_7_" x="583.538" y="51.379" width="110.803" height="130.871"/>
	</defs>
	<clipPath id="SVGID_8_">
		<use xlink:href="#SVGID_7_"  overflow="visible"/>
	</clipPath>
	<path clip-path="url(#SVGID_8_)" fill="#1E3046" d="M665.44,134.082l20.874,2.405c-5.622,15.253-12.849,27.297-22.482,34.525
		c-10.438,8.024-21.678,11.237-34.522,11.237c-12.853,0-24.089-4.011-32.923-12.844c-8.026-8.835-12.849-20.878-12.849-36.932
		c0-13.658,3.214-27.3,8.835-40.147c4.817-13.651,12.847-23.286,23.285-30.514c9.635-6.423,21.678-10.434,34.522-10.434
		c13.652,0,24.089,4.011,32.121,12.042c7.227,7.228,11.236,16.86,11.236,29.703l-20.871,2.412c0-8.826-2.41-14.451-6.424-19.268
		c-4.815-4.817-10.437-7.228-18.469-7.228c-8.829,0-16.056,3.211-22.48,8.032c-6.423,5.617-11.241,13.647-14.451,24.889
		c-4.018,11.236-5.622,21.679-5.622,32.12c0,10.437,2.407,18.466,7.228,24.084c4.813,5.618,10.438,8.026,17.66,8.026
		c7.228,0,13.653-2.408,20.072-8.026C656.604,153.346,661.426,144.519,665.44,134.082z"/>
</g>
<g>
	<defs>
		<rect id="SVGID_9_" x="691.934" y="51.379" width="117.227" height="130.871"/>
	</defs>
	<clipPath id="SVGID_10_">
		<use xlink:href="#SVGID_9_"  overflow="visible"/>
	</clipPath>
	<path clip-path="url(#SVGID_10_)" fill="#1E3046" d="M773.83,163.784c-7.225,6.426-14.451,11.238-21.677,14.455
		c-6.421,3.217-13.648,4.011-21.679,4.011c-11.241,0-20.876-3.213-28.103-9.629c-6.419-7.229-10.438-16.063-10.438-26.505
		c0-6.415,1.603-12.845,4.817-18.463c3.21-5.621,8.032-9.635,12.847-12.851c5.622-3.203,12.045-5.614,19.273-7.223
		c4.813-0.798,13.646-1.611,27.298-2.405c13.648,0,23.286-1.608,28.907-4.014c1.604-5.624,2.406-10.441,2.406-14.45
		c0-4.826-1.608-8.834-5.622-11.246c-4.82-4.013-12.043-6.424-21.681-6.424c-8.831,0-16.059,2.411-21.675,6.424
		c-6.423,4.013-10.442,9.64-12.848,16.862l-21.678-2.412c4.818-12.039,12.044-21.676,20.875-28.102
		c9.634-7.223,21.683-10.434,36.129-10.434c16.058,0,28.108,4.011,36.942,11.238c7.223,5.622,10.433,12.847,10.433,21.683
		c0,6.419-0.804,14.445-3.21,23.279l-6.429,31.311c-2.401,9.638-4.013,17.667-4.013,24.093c0,4.017,1.611,9.638,3.219,16.864
		h-21.685C775.438,175.83,773.83,170.21,773.83,163.784z M781.86,116.411c-3.213,0.804-6.422,2.405-9.634,2.405
		c-3.213,0.813-9.634,1.608-16.862,2.422c-12.847,0.794-21.681,2.402-26.494,4.007c-5.621,1.607-9.638,4.817-12.05,8.026
		c-2.406,4.021-4.009,8.036-4.009,12.05c0,6.419,2.407,11.236,6.42,15.25c4.017,4.018,10.441,5.621,17.666,5.621
		c7.222,0,13.646-1.604,20.07-5.621c7.227-4.014,12.045-8.831,16.058-15.25C777.04,138.096,779.455,128.454,781.86,116.411z"/>
</g>
<g>
	<defs>
		<rect id="SVGID_11_" x="0.629" y="4.007" width="1523.923" height="178.243"/>
	</defs>
	<clipPath id="SVGID_12_">
		<use xlink:href="#SVGID_11_"  overflow="visible"/>
	</clipPath>
	<polygon clip-path="url(#SVGID_12_)" fill="#1E3046" points="812.373,179.848 848.503,7.22 869.378,7.22 833.244,179.848 	"/>
	<path clip-path="url(#SVGID_12_)" fill="#1E3046" d="M891.059,179.848L879.819,7.22h23.28l4.02,85.107
		c0.798,4.014,0.798,15.253,1.601,33.719c0,4.82,0,8.036,0,10.441c0,0.805,0,4.82,0,11.237
		c9.639-19.271,16.867-32.922,20.875-40.942L982.589,7.22h23.286l5.621,101.164c0.795,11.246,0.795,24.888,1.604,41.749
		c1.604-4.017,4.014-10.432,7.229-18.463c6.416-12.04,10.433-21.678,12.844-27.299l48.976-97.151h24.09l-88.328,172.628H993.03
		l-4.823-104.383c-0.798-8.834-1.607-20.075-2.402-33.723c-4.824,11.243-8.834,19.273-12.05,25.698l-59.413,112.408H891.059z"/>
</g>
<g>
	<defs>
		<rect id="SVGID_13_" x="1067.7" y="51.379" width="118.832" height="130.871"/>
	</defs>
	<clipPath id="SVGID_14_">
		<use xlink:href="#SVGID_13_"  overflow="visible"/>
	</clipPath>
	<path clip-path="url(#SVGID_14_)" fill="#1E3046" d="M1067.7,132.475c0-24.895,7.223-44.969,21.672-61.023
		c11.246-12.848,27.306-20.072,46.572-20.072c14.454,0,27.299,4.816,36.133,14.447c8.834,9.638,13.643,22.483,13.643,38.544
		c0,14.445-2.402,27.299-8.825,40.147c-5.621,12.039-13.651,21.674-24.093,28.103c-11.236,6.416-22.479,9.629-34.526,9.629
		c-9.631,0-18.465-1.608-26.492-5.616c-8.026-4.817-13.654-10.441-17.664-17.671C1069.302,150.937,1067.7,142.106,1067.7,132.475z
		 M1088.571,130.063c0,12.044,2.408,20.874,8.029,27.3c6.426,5.621,13.651,8.83,21.675,8.83c4.821,0,9.645-0.801,13.654-2.408
		c4.818-2.406,8.835-4.821,12.849-8.835c4.01-4.013,7.229-8.02,9.631-12.843c3.213-4.814,5.618-10.437,7.227-16.061
		c2.412-7.229,3.212-15.25,3.212-22.479c0-11.239-2.408-20.074-8.833-26.494c-5.616-5.621-12.845-8.833-20.875-8.833
		c-7.22,0-12.847,1.606-18.462,4.815c-5.621,3.214-10.438,7.228-15.26,13.656c-4.817,6.414-8.023,13.644-9.635,21.673
		C1089.372,116.411,1088.571,123.641,1088.571,130.063z"/>
</g>
<g>
	<defs>
		<rect id="SVGID_15_" x="0.629" y="4.007" width="1523.923" height="178.243"/>
	</defs>
	<clipPath id="SVGID_16_">
		<use xlink:href="#SVGID_15_"  overflow="visible"/>
	</clipPath>
	<path clip-path="url(#SVGID_16_)" fill="#1E3046" d="M1187.327,179.848l25.692-125.257h19.274l-5.621,25.691
		c6.423-9.633,12.849-16.86,19.264-21.678c5.624-4.817,12.05-7.225,18.476-7.225c4.813,0,9.637,1.605,16.054,5.618l-8.829,19.271
		c-4.016-2.411-8.029-4.017-12.042-4.017c-7.224,0-15.257,4.017-23.287,12.048c-8.026,8.824-13.65,23.279-18.465,44.958
		l-10.438,50.589H1187.327z"/>
</g>
<g>
	<defs>
		<rect id="SVGID_17_" x="47.999" y="4.007" width="1428.376" height="178.243"/>
	</defs>
	<clipPath id="SVGID_18_">
		<use xlink:href="#SVGID_17_"  overflow="visible"/>
	</clipPath>
	<polygon clip-path="url(#SVGID_18_)" fill="#1E3046" points="1259.595,179.848 1294.918,7.22 1316.595,7.22 1294.119,114.009 
		1356.743,54.591 1384.846,54.591 1331.855,101.161 1363.971,179.848 1340.683,179.848 1315.795,115.607 1289.299,138.096 
		1280.466,179.848 	"/>
</g>
<g>
	<defs>
		<rect id="SVGID_19_" x="1365.579" y="51.379" width="110.796" height="130.871"/>
	</defs>
	<clipPath id="SVGID_20_">
		<use xlink:href="#SVGID_19_"  overflow="visible"/>
	</clipPath>
	<path clip-path="url(#SVGID_20_)" fill="#1E3046" d="M1365.579,137.292l21.679-1.608c0,6.423,0.798,11.246,2.405,16.057
		c1.607,4.014,5.621,7.223,10.441,10.439c5.618,2.409,11.239,4.013,17.659,4.013c9.638,0,16.867-1.604,21.674-5.621
		c4.822-4.014,7.23-8.023,7.23-13.642c0-3.216-1.602-7.229-4.014-10.442c-3.217-3.216-10.436-7.229-21.682-12.046
		c-11.239-4.812-18.462-8.03-21.682-9.639c-5.613-3.203-9.628-7.223-12.033-12.04c-2.412-4.017-4.021-8.827-4.021-14.453
		c0-10.433,4.021-18.464,12.047-25.692c7.227-7.228,18.462-11.238,32.918-11.238c15.253,0,27.299,4.011,36.134,11.238
		c8.029,7.228,12.039,16.86,12.039,28.906l-20.07,1.602c0-7.227-3.212-13.647-8.032-18.462c-4.817-4.013-12.041-6.423-21.679-6.423
		c-7.227,0-12.848,1.606-16.86,4.815c-4.811,4.018-6.419,7.228-6.419,11.246c0,4.009,1.608,8.026,4.811,11.236
		c2.415,1.608,8.835,4.817,18.469,8.834c16.861,7.229,27.301,12.844,31.316,16.867c6.426,6.415,10.438,14.445,10.438,23.28
		c0,6.418-2.404,12.844-6.419,18.465c-3.215,5.618-9.638,10.433-16.863,14.455c-8.03,3.203-16.864,4.812-28.106,4.812
		c-14.449,0-26.493-3.213-36.929-10.434C1370.394,164.589,1365.579,153.346,1365.579,137.292z"/>
</g>
</svg>
